# Blender v2.68 (sub 0) OBJ File: 'naov38.blend'
# www.blender.org
mtllib eye4.mtl
o Eye4_Chest.005
v 0.218051 0.420242 0.478306
v 0.186307 0.443169 0.494785
v 0.233982 0.467600 0.396532
v 0.225215 0.471984 0.396830
v 0.217908 0.478559 0.396234
v 0.211333 0.485865 0.396532
v 0.206949 0.494633 0.395638
v 0.163380 0.476677 0.506059
v 0.200415 0.430823 0.487557
v 0.172198 0.459041 0.502012
vt 0.596168 0.863239
vt 0.600815 0.870147
vt 0.591023 0.864782
vt 0.598257 0.870786
vt 0.586907 0.866583
vt 0.596126 0.871745
vt 0.582791 0.868898
vt 0.594208 0.872811
vt 0.580218 0.871471
vt 0.592929 0.874090
vn 0.622578 0.618458 0.479446
vn 0.437849 0.765831 0.470870
vn 0.669454 0.584307 0.458632
vn 0.507859 0.732231 0.453749
vn 0.739280 0.518113 0.430067
vn 0.643086 0.638569 0.422620
vn 0.817377 0.403729 0.410901
vn 0.754631 0.518632 0.401868
vn 0.850307 0.340953 0.400861
vn 0.806879 0.443251 0.390423
usemtl Material
s 1
f 1/1/1 3/2/2 9/3/3
f 9/3/3 4/4/4 2/5/5
f 2/5/5 5/6/6 10/7/7
f 10/7/7 6/8/8 8/9/9
f 3/2/2 4/4/4 9/3/3
f 4/4/4 5/6/6 2/5/5
f 5/6/6 6/8/8 10/7/7
f 6/8/8 7/10/10 8/9/9
