# Blender v2.68 (sub 0) OBJ File: 'naov29s.blend'
# www.blender.org
mtllib epauleBiceps.mtl
o EpauleBiceps_Chest.000
v 0.002285 -0.106364 -0.303733
v 0.002285 0.154004 -0.288116
v 0.002285 0.225594 -0.223170
v 0.251261 0.173901 -0.222975
v 0.002285 0.279185 -0.133130
v 0.179916 0.298748 -0.119711
v 0.002285 0.310436 -0.056053
v 0.002285 0.254949 0.183243
v 0.013169 0.254949 0.183243
v 0.002285 0.316816 0.021179
v 0.002285 0.297807 0.106655
v 0.013169 -0.147140 0.270712
v 0.002285 -0.147140 0.270712
v 0.002285 -0.303572 0.061744
v 0.069387 -0.284557 0.071763
v 0.002285 -0.309951 -0.017654
v 0.002285 -0.018982 -0.319675
v 0.002285 0.070217 -0.314325
v 0.269252 0.090197 -0.248801
v 0.273172 0.001016 -0.254135
v 0.002285 -0.184851 -0.247790
v 0.002285 -0.290943 -0.098932
v 0.002285 -0.248085 -0.164757
v 0.203088 -0.228418 -0.151244
v 0.002285 0.191716 0.246477
v 0.002285 0.113228 0.289334
v 0.002285 -0.218729 0.217121
v 0.002285 -0.272320 0.145532
v 0.013169 -0.272320 0.145532
v 0.013169 -0.218729 0.217121
v 0.002285 0.025846 0.308343
v 0.002285 -0.063352 0.301963
v 0.013169 -0.063352 0.301963
v 0.262703 -0.086416 -0.238546
v 0.272699 -0.092149 -0.252234
v 0.251261 0.173901 -0.222977
v 0.220655 0.245348 -0.178751
v 0.260655 0.181869 -0.235843
v 0.125893 0.329749 -0.043999
v 0.012006 0.268187 0.192301
v 0.084889 0.335922 0.032187
v 0.053798 0.316732 0.116856
v 0.085527 0.352417 0.032748
v 0.069209 -0.300718 0.074408
v 0.106656 -0.290741 -0.006687
v 0.279593 0.093760 -0.263028
v 0.238693 -0.165017 -0.203298
v 0.158771 -0.271484 -0.086605
v 0.163296 -0.286957 -0.092295
v 0.013169 0.191716 0.246477
v 0.013169 0.113228 0.289334
v 0.012006 0.119007 0.303976
v 0.012006 -0.286834 0.152605
v 0.013169 0.025846 0.308343
v 0.012006 -0.066867 0.317270
v 0.012006 -0.155065 0.284374
v 0.000006 -0.155065 0.284374
v 0.108440 -0.307228 -0.008172
v 0.052799 0.332218 0.121873
v 0.128689 0.345920 -0.047448
v 0.283719 -0.000115 -0.268643
v 0.247426 -0.174886 -0.215130
v 0.209946 -0.241625 -0.160337
v 0.228438 0.257076 -0.189292
v 0.185554 0.313287 -0.127145
v 0.190923 0.181649 -0.263241
v 0.202209 0.093521 -0.294327
v 0.204773 -0.000358 -0.300739
v 0.198407 -0.092378 -0.281958
v 0.183626 -0.175084 -0.239506
v 0.161627 -0.241776 -0.176823
v 0.103546 -0.307241 -0.012302
v 0.134193 -0.287051 -0.098986
v 0.116903 0.345887 -0.055761
v 0.171825 0.256900 -0.210004
v 0.146468 0.313164 -0.138924
v 0.127114 0.181450 -0.280787
v 0.132850 0.093300 -0.313308
v 0.134281 -0.000583 -0.320013
v 0.131291 -0.092592 -0.300358
v 0.124123 -0.175274 -0.255936
v 0.113357 -0.241930 -0.190346
v 0.099865 -0.287160 -0.108902
v 0.084741 -0.307300 -0.018201
v 0.074684 0.352383 0.028909
v 0.090216 0.345802 -0.063700
v 0.117537 0.256727 -0.225085
v 0.104897 0.313031 -0.150714
v 0.012006 0.161929 -0.296158
v 0.000006 0.161929 -0.296158
v 0.012006 0.073732 -0.329054
v 0.000006 0.073732 -0.329054
v 0.012006 -0.020161 -0.335769
v 0.000006 -0.020161 -0.335769
v 0.012006 -0.112143 -0.315760
v 0.000006 -0.112143 -0.315760
v 0.012006 -0.194761 -0.270647
v 0.000006 -0.194761 -0.270647
v 0.012006 -0.261323 -0.204085
v 0.000006 -0.261323 -0.204085
v 0.012006 -0.306436 -0.121467
v 0.000006 -0.306436 -0.121467
v 0.012006 -0.326445 -0.029485
v 0.000006 -0.326445 -0.029485
v 0.012006 -0.319730 0.064408
v 0.000006 -0.319730 0.064408
v 0.000006 -0.230422 0.227962
v 0.012006 -0.230422 0.227962
v 0.000006 -0.286834 0.152605
v 0.000006 -0.066867 0.317270
v 0.012006 0.027026 0.323985
v 0.000006 0.027026 0.323985
v 0.000006 0.119007 0.303976
v 0.012006 0.201625 0.258863
v 0.000006 0.201625 0.258863
v 0.000006 0.268187 0.192301
v 0.012006 0.313300 0.109683
v 0.000006 0.313300 0.109683
v 0.012006 0.333310 0.017701
v 0.000006 0.333310 0.017701
v 0.012006 0.326595 -0.076192
v 0.000006 0.326595 -0.076192
v 0.012006 0.293698 -0.164389
v 0.000006 0.293698 -0.164389
v 0.000006 0.237287 -0.239746
v 0.012006 0.237287 -0.239746
vt 0.750358 0.727643
vt 0.713545 0.767288
vt 0.746531 0.727643
vt 0.755971 0.831306
vt 0.751906 0.826405
vt 0.746531 0.787859
vt 0.676608 0.750899
vt 0.746531 0.749649
vt 0.676608 0.765629
vt 0.750358 0.737064
vt 0.746531 0.737064
vt 0.756880 0.832117
vt 0.746531 0.772179
vt 0.745730 0.735008
vt 0.749949 0.735008
vt 0.745730 0.748256
vt 0.749949 0.834110
vt 0.749949 0.830592
vt 0.711927 0.759850
vt 0.722858 0.808195
vt 0.719477 0.792869
vt 0.737185 0.807762
vt 0.724976 0.813667
vt 0.727427 0.825474
vt 0.751229 0.823888
vt 0.746825 0.819964
vt 0.704750 0.831291
vt 0.705984 0.821596
vt 0.725779 0.821214
vt 0.704079 0.836828
vt 0.728002 0.830873
vt 0.704026 0.837758
vt 0.729346 0.836389
vt 0.704595 0.834006
vt 0.729047 0.833576
vt 0.705739 0.825875
vt 0.707366 0.814026
vt 0.709344 0.799417
vt 0.721892 0.799110
vt 0.711514 0.783231
vt 0.718425 0.782984
vt 0.707680 0.808528
vt 0.709703 0.793146
vt 0.749949 0.803982
vt 0.749949 0.817229
vt 0.749949 0.788477
vt 0.749949 0.771971
vt 0.749949 0.755801
vt 0.749949 0.741277
vt 0.749949 0.729576
vt 0.749949 0.721646
vt 0.749949 0.718128
vt 0.711888 0.776696
vt 0.749949 0.832929
vt 0.749949 0.827146
vt 0.745730 0.817229
vt 0.745730 0.788477
vt 0.745730 0.803982
vt 0.745730 0.771971
vt 0.745730 0.755801
vt 0.745730 0.741277
vt 0.745730 0.729576
vt 0.745730 0.721646
vt 0.745730 0.718128
vt 0.745730 0.719309
vt 0.749949 0.719309
vt 0.745730 0.830592
vt 0.745730 0.834110
vt 0.745730 0.832929
vt 0.745730 0.827146
vt 0.676608 0.821584
vt 0.676608 0.810468
vt 0.746531 0.820334
vt 0.676608 0.796671
vt 0.676608 0.781309
vt 0.746531 0.795421
vt 0.745016 0.817811
vt 0.735858 0.806220
vt 0.746531 0.824595
vt 0.746531 0.756817
vt 0.746531 0.743020
vt 0.754561 0.828770
vt 0.746531 0.802589
vt 0.723505 0.791174
vt 0.746531 0.830089
vt 0.715644 0.776500
vt 0.746531 0.831210
vt 0.711862 0.760704
vt 0.746531 0.827869
vt 0.719944 0.782198
vt 0.746531 0.722149
vt 0.731304 0.798033
vt 0.746531 0.721028
vt 0.741232 0.811009
vt 0.749200 0.821539
vt 0.746531 0.731903
vt 0.746531 0.724369
vt 0.746531 0.809218
vt 0.746531 0.780059
vt 0.749949 0.725092
vt 0.713698 0.766782
vt 0.749949 0.822661
vt 0.749949 0.810960
vt 0.749949 0.796437
vt 0.749949 0.780267
vt 0.756872 0.831500
vt 0.759314 0.835021
vt 0.758357 0.834169
vt 0.754079 0.829010
vt 0.751906 0.826406
vt 0.724182 0.791924
vt 0.715908 0.776479
vt 0.749949 0.748256
vt 0.720434 0.782475
vt 0.732392 0.799144
vt 0.742843 0.812804
vt 0.749949 0.763761
vt 0.745730 0.763761
vt 0.729705 0.837315
vt 0.745730 0.725092
vt 0.745730 0.780267
vt 0.745730 0.796437
vt 0.745730 0.810960
vt 0.745730 0.822661
vt 0.746531 0.764379
vt 0.746531 0.815174
vn 0.652455 0.756951 -0.035707
vn 0.551958 0.800684 0.232795
vn -0.050844 0.899838 -0.433180
vn 0.394482 -0.113468 0.911832
vn -0.188421 -0.441572 0.877194
vn -0.227393 -0.171239 0.958617
vn 0.767083 0.307566 -0.562975
vn 0.000000 0.479232 -0.877651
vn 0.767205 0.136387 -0.626698
vn 0.766839 0.453963 -0.453658
vn 0.000000 0.707083 -0.707083
vn 0.382397 0.033815 0.923368
vn -0.240211 0.061647 0.968749
vn 0.000000 -0.707083 0.707083
vn 0.651479 -0.536546 0.536332
vn 0.000000 -0.479232 0.877651
vn -0.162175 0.985412 0.051119
vn -0.249611 0.908902 0.334025
vn 0.399030 0.715171 0.573809
vn 0.135533 0.876125 -0.462600
vn 0.085208 0.976440 -0.198157
vn 0.730277 0.681845 0.041963
vn 0.183905 -0.796167 -0.576403
vn 0.253914 -0.594134 -0.763207
vn 0.866726 -0.465590 -0.178777
vn 0.824671 0.553850 -0.114597
vn 0.133763 0.483596 -0.864986
vn 0.079775 0.709006 -0.700644
vn 0.216773 0.704794 -0.675466
vn 0.174078 0.219337 -0.959960
vn 0.277108 0.477737 -0.833644
vn 0.200262 -0.062258 -0.977752
vn 0.312296 0.213080 -0.925748
vn 0.212653 -0.338389 -0.916623
vn 0.300424 -0.345256 -0.889096
vn 0.212317 -0.586840 -0.781335
vn 0.200934 -0.787591 -0.582476
vn 0.176061 -0.926542 -0.332347
vn 0.095187 -0.935148 -0.341166
vn 0.141606 -0.987915 -0.062746
vn 0.040223 -0.996368 -0.074892
vn 0.013337 0.876797 -0.480636
vn -0.064058 0.972442 -0.224036
vn 0.019501 0.470412 -0.882199
vn -0.014863 0.698691 -0.715232
vn 0.047609 0.204413 -0.977722
vn 0.070132 -0.077456 -0.994507
vn 0.087741 -0.352550 -0.931639
vn 0.101291 -0.598865 -0.794397
vn 0.111667 -0.796808 -0.593799
vn 0.123783 -0.931669 -0.341563
vn 0.136631 -0.988067 -0.070650
vn -0.149266 0.988067 0.037294
vn -0.104129 0.968657 -0.225410
vn -0.056001 0.869839 -0.490097
vn 0.000000 0.212561 -0.977142
vn 0.000000 -0.071322 -0.997436
vn 0.000000 -0.349437 -0.936949
vn 0.000000 -0.599261 -0.800531
vn 0.000000 -0.800531 -0.599261
vn 0.000000 -0.936949 -0.349437
vn 0.000000 -0.997436 -0.071322
vn 0.000000 -0.977142 0.212561
vn 0.139958 -0.969481 0.201117
vn 0.000000 0.936949 0.349437
vn 0.000000 0.997436 0.071322
vn 0.000000 0.977142 -0.212561
vn 0.000000 0.877651 -0.479232
vn 0.685781 -0.604785 -0.404797
vn 0.766961 -0.384686 -0.513565
vn 0.069277 -0.744682 -0.663808
vn 0.767144 -0.224250 -0.600940
vn 0.767235 -0.045747 -0.639699
vn 0.476363 -0.395306 0.785363
vn 0.549821 -0.456038 0.699759
vn 0.026704 -0.880856 0.472610
vn -0.248695 0.376202 0.892514
vn -0.209784 0.666036 0.715781
vn 0.388470 0.193640 0.900845
vn -0.175237 -0.455672 0.872707
vn 0.616535 -0.579363 0.533067
vn 0.112033 -0.960997 0.252724
vn 0.733909 -0.615345 0.287576
vn 0.206122 -0.977905 -0.034639
vn 0.829829 -0.536973 0.151708
vn 0.349254 -0.888852 -0.296548
vn 0.518143 0.763176 0.386029
vn -0.206122 0.953154 -0.221351
vn 0.481948 0.602954 0.635731
vn -0.164525 0.984283 0.063784
vn 0.463271 0.446577 0.765435
vn 0.425092 0.333567 0.841426
vn -0.141881 0.798242 0.585345
vn -0.132725 0.913846 0.383709
vn 0.538957 -0.657460 0.526505
vn 0.704672 -0.553728 0.443587
vn 0.575701 0.565203 0.590838
vn 0.651357 0.454787 0.607349
vn 0.651143 0.265267 0.711051
vn 0.651082 0.054140 0.757042
vn 0.923154 -0.271584 -0.272042
vn 0.948057 -0.052919 -0.313578
vn 0.938658 0.171270 -0.299295
vn 0.895993 0.379315 -0.230750
vn 0.810663 -0.010498 0.585376
vn 0.650624 0.720084 0.241066
vn 0.598224 0.733909 0.321635
vn 0.651234 -0.363750 0.665975
vn 0.611530 -0.729728 0.305734
vn 0.688101 -0.717429 0.108524
vn 0.784722 -0.618275 -0.043489
vn 0.651112 -0.161351 0.741600
vn 0.000000 -0.212561 0.977142
vn 0.320231 -0.069033 -0.944792
vn 0.000000 -0.877651 0.479232
vn 0.000000 0.071322 0.997436
vn 0.000000 0.349437 0.936949
vn 0.000000 0.599261 0.800531
vn 0.000000 0.800531 0.599261
vn -0.062807 -0.759972 0.646870
usemtl Material
s 1
f 29/1/1 15/2/2 28/3/3
f 19/4/4 4/5/5 18/6/6
f 12/7/7 13/8/8 33/9/9
f 30/10/10 27/11/11 12/7/7
f 20/12/12 19/4/4 17/13/13
f 30/10/10 29/1/1 27/11/11
f 107/14/14 108/15/15 57/16/16
f 119/17/17 117/18/18 59/19/19
f 76/20/20 74/21/21 65/22/22
f 71/23/23 70/24/24 62/25/25
f 76/20/20 65/22/22 64/26/26
f 77/27/27 87/28/28 75/29/29
f 78/30/30 77/27/27 66/31/31
f 79/32/32 78/30/30 67/33/33
f 80/34/34 79/32/32 69/35/35
f 81/36/36 80/34/34 70/24/24
f 82/37/37 81/36/36 71/23/23
f 83/38/38 82/37/37 73/39/39
f 84/40/40 83/38/38 72/41/41
f 88/42/42 86/43/43 74/21/21
f 88/42/42 76/20/20 87/28/28
f 89/44/44 126/45/45 87/28/28
f 91/46/46 89/44/44 77/27/27
f 93/47/47 91/46/46 78/30/30
f 95/48/48 93/47/47 79/32/32
f 97/49/49 95/48/48 80/34/34
f 99/50/50 97/49/49 81/36/36
f 101/51/51 99/50/50 82/37/37
f 103/52/52 101/51/51 84/40/40
f 119/17/17 85/53/53 121/54/54
f 123/55/55 121/54/54 86/43/43
f 87/28/28 126/45/45 88/42/42
f 126/45/45 89/44/44 125/56/11
f 92/57/56 90/58/8 91/46/46
f 94/59/57 92/57/56 93/47/47
f 96/60/58 94/59/57 95/48/48
f 98/61/59 96/60/58 97/49/49
f 100/62/60 98/61/59 99/50/50
f 102/63/61 100/62/60 101/51/51
f 104/64/62 102/63/61 103/52/52
f 106/65/63 104/64/62 105/66/64
f 118/67/65 117/18/18 120/68/66
f 120/68/66 119/17/17 122/69/67
f 124/70/68 122/69/67 123/55/55
f 126/45/45 125/56/11 123/55/55
f 9/71/69 50/72/70 8/73/71
f 51/74/72 54/75/73 26/76/58
f 37/77/74 6/78/75 5/79/76
f 1/80/77 21/81/78 34/82/79
f 17/13/13 1/80/77 20/12/12
f 4/5/5 37/77/74 2/83/80
f 6/78/75 39/84/81 7/85/82
f 39/84/81 41/86/83 10/87/84
f 42/88/85 9/71/69 8/73/71
f 41/86/83 42/88/85 11/89/86
f 15/2/2 45/90/87 14/91/88
f 45/90/87 48/92/89 16/93/90
f 24/94/91 47/95/92 23/96/93
f 48/92/89 24/94/91 22/97/94
f 50/72/70 51/74/72 25/98/59
f 54/75/73 33/9/9 31/99/57
f 53/100/95 44/101/96 15/2/2
f 40/102/97 114/103/98 50/72/70
f 52/104/99 111/105/100 54/75/73
f 64/26/26 65/22/22 6/78/75
f 62/25/25 35/106/101 47/95/92
f 35/106/101 61/107/102 34/82/79
f 46/108/103 38/109/104 36/110/105
f 38/109/104 64/26/26 37/77/74
f 65/22/22 60/111/106 39/84/81
f 60/111/106 43/112/107 41/86/83
f 59/19/19 40/102/97 9/71/69
f 43/112/107 59/19/19 42/88/85
f 56/113/108 12/7/7 33/9/9
f 108/15/15 30/10/10 12/7/7
f 44/101/96 58/114/109 15/2/2
f 58/114/109 49/115/110 45/90/87
f 61/107/102 46/108/103 19/4/4
f 63/116/111 62/25/25 24/94/91
f 49/115/110 63/116/111 48/92/89
f 114/103/98 52/104/99 51/74/72
f 108/15/15 53/100/95 30/10/10
f 111/105/100 55/117/112 54/75/73
f 55/117/112 110/118/113 56/113/108
f 53/100/95 105/66/64 44/101/96
f 44/101/96 72/41/41 58/114/109
f 44/101/96 84/40/40 72/41/41
f 72/41/41 73/39/39 49/115/110
f 85/53/53 59/19/19 43/112/107
f 117/18/18 40/102/97 59/19/19
f 74/21/21 43/112/107 60/111/106
f 66/31/31 75/29/29 38/109/104
f 67/33/33 66/31/31 46/108/103
f 68/119/114 67/33/33 61/107/102
f 69/35/35 68/119/114 61/107/102
f 70/24/24 69/35/35 35/106/101
f 73/39/39 71/23/23 63/116/111
f 85/53/53 43/112/107 86/43/43
f 105/66/64 103/52/52 44/101/96
f 109/120/115 106/65/63 53/100/95
f 109/120/115 53/100/95 107/14/14
f 110/118/113 55/117/112 112/121/116
f 113/122/117 112/121/116 52/104/99
f 113/122/117 52/104/99 115/123/118
f 116/124/119 115/123/118 40/102/97
f 116/124/119 40/102/97 118/67/65
f 15/2/2 14/91/88 28/3/3
f 4/5/5 2/83/80 18/6/6
f 13/8/8 32/125/56 33/9/9
f 27/11/11 13/8/8 12/7/7
f 19/4/4 18/6/6 17/13/13
f 29/1/1 28/3/3 27/11/11
f 108/15/15 56/113/108 57/16/16
f 85/53/53 119/17/17 59/19/19
f 74/21/21 60/111/106 65/22/22
f 63/116/111 71/23/23 62/25/25
f 75/29/29 76/20/20 64/26/26
f 66/31/31 77/27/27 75/29/29
f 67/33/33 78/30/30 66/31/31
f 68/119/114 79/32/32 67/33/33
f 79/32/32 68/119/114 69/35/35
f 80/34/34 69/35/35 70/24/24
f 81/36/36 70/24/24 71/23/23
f 82/37/37 71/23/23 73/39/39
f 83/38/38 73/39/39 72/41/41
f 76/20/20 88/42/42 74/21/21
f 76/20/20 75/29/29 87/28/28
f 77/27/27 89/44/44 87/28/28
f 78/30/30 91/46/46 77/27/27
f 79/32/32 93/47/47 78/30/30
f 80/34/34 95/48/48 79/32/32
f 81/36/36 97/49/49 80/34/34
f 82/37/37 99/50/50 81/36/36
f 83/38/38 101/51/51 82/37/37
f 101/51/51 83/38/38 84/40/40
f 85/53/53 86/43/43 121/54/54
f 88/42/42 123/55/55 86/43/43
f 126/45/45 123/55/55 88/42/42
f 89/44/44 90/58/8 125/56/11
f 90/58/8 89/44/44 91/46/46
f 92/57/56 91/46/46 93/47/47
f 94/59/57 93/47/47 95/48/48
f 96/60/58 95/48/48 97/49/49
f 98/61/59 97/49/49 99/50/50
f 100/62/60 99/50/50 101/51/51
f 102/63/61 101/51/51 103/52/52
f 104/64/62 103/52/52 105/66/64
f 117/18/18 119/17/17 120/68/66
f 119/17/17 121/54/54 122/69/67
f 122/69/67 121/54/54 123/55/55
f 125/56/11 124/70/68 123/55/55
f 50/72/70 25/98/59 8/73/71
f 54/75/73 31/99/57 26/76/58
f 3/126/120 37/77/74 5/79/76
f 21/81/78 47/95/92 34/82/79
f 1/80/77 34/82/79 20/12/12
f 37/77/74 3/126/120 2/83/80
f 5/79/76 6/78/75 7/85/82
f 7/85/82 39/84/81 10/87/84
f 11/89/86 42/88/85 8/73/71
f 10/87/84 41/86/83 11/89/86
f 45/90/87 16/93/90 14/91/88
f 48/92/89 22/97/94 16/93/90
f 47/95/92 21/81/78 23/96/93
f 24/94/91 23/96/93 22/97/94
f 51/74/72 26/76/58 25/98/59
f 33/9/9 32/125/56 31/99/57
f 29/1/1 53/100/95 15/2/2
f 9/71/69 40/102/97 50/72/70
f 51/74/72 52/104/99 54/75/73
f 37/77/74 64/26/26 6/78/75
f 35/106/101 34/82/79 47/95/92
f 61/107/102 20/12/12 34/82/79
f 19/4/4 46/108/103 36/110/105
f 36/110/105 38/109/104 37/77/74
f 6/78/75 65/22/22 39/84/81
f 39/84/81 60/111/106 41/86/83
f 42/88/85 59/19/19 9/71/69
f 41/86/83 43/112/107 42/88/85
f 55/117/112 56/113/108 33/9/9
f 56/113/108 108/15/15 12/7/7
f 58/114/109 45/90/87 15/2/2
f 49/115/110 48/92/89 45/90/87
f 20/12/12 61/107/102 19/4/4
f 62/25/25 47/95/92 24/94/91
f 63/116/111 24/94/91 48/92/89
f 50/72/70 114/103/98 51/74/72
f 53/100/95 29/1/1 30/10/10
f 55/117/112 33/9/9 54/75/73
f 110/118/113 57/16/16 56/113/108
f 58/114/109 72/41/41 49/115/110
f 75/29/29 64/26/26 38/109/104
f 66/31/31 38/109/104 46/108/103
f 67/33/33 46/108/103 61/107/102
f 35/106/101 69/35/35 61/107/102
f 62/25/25 70/24/24 35/106/101
f 49/115/110 73/39/39 63/116/111
f 43/112/107 74/21/21 86/43/43
f 103/52/52 84/40/40 44/101/96
f 106/65/63 105/66/64 53/100/95
f 53/100/95 108/15/15 107/14/14
f 55/117/112 111/105/100 112/121/116
f 112/121/116 111/105/100 52/104/99
f 52/104/99 114/103/98 115/123/118
f 115/123/118 114/103/98 40/102/97
f 40/102/97 117/18/18 118/67/65
