# Blender v2.68 (sub 0) OBJ File: 'naov38.blend'
# www.blender.org
mtllib eye5.mtl
o Eye5_Chest.006
v 0.297413 0.420242 0.442747
v 0.218051 0.420242 0.478306
v 0.271974 0.467600 0.395638
v 0.262476 0.464677 0.395936
v 0.252978 0.463947 0.395936
v 0.243480 0.464677 0.396532
v 0.233982 0.467600 0.396532
v 0.278014 0.414951 0.450842
v 0.258614 0.413187 0.459804
v 0.237451 0.414951 0.469344
vt 0.613661 0.862467
vt 0.609128 0.869720
vt 0.608001 0.862210
vt 0.606357 0.869614
vt 0.601827 0.862467
vt 0.619320 0.863239
vt 0.611899 0.870147
vt 0.603586 0.869720
vt 0.596168 0.863239
vt 0.600815 0.870147
vn 0.150334 0.744102 0.650899
vn -0.102817 0.744560 0.659566
vn 0.268654 0.758080 0.594226
vn 0.039766 0.799524 0.599261
vn 0.387616 0.740684 0.548692
vn 0.086886 0.725639 0.682546
vn -0.147404 0.707633 0.691000
vn 0.189215 0.815119 0.547472
vn 0.426435 0.732475 0.530625
vn 0.250954 0.815638 0.521256
usemtl Material
s 1
f 8/1/1 4/2/2 9/3/3
f 9/3/3 5/4/4 10/5/5
f 1/6/6 3/7/7 8/1/1
f 10/5/5 6/8/8 2/9/9
f 4/2/2 5/4/4 9/3/3
f 5/4/4 6/8/8 10/5/5
f 3/7/7 4/2/2 8/1/1
f 6/8/8 7/10/10 2/9/9
